<svg width="37" height="51" viewBox="0 0 37 51" fill="none" xmlns="http://www.w3.org/2000/svg">
<path d="M34.6301 4.80167L24.335 0.835079C22.4396 0.104811 20.2256 0.876816 19.4011 2.55551L17.6732 6.07334C16.6715 8.11276 16.6434 10.3864 17.5446 12.4137C17.7689 12.9183 18.0514 13.4087 18.391 13.8757C18.8412 14.4941 19.3837 15.0323 19.9775 15.5114L14.1457 27.3832L8.64314 25.2631C7.12343 24.6776 5.35609 25.2938 4.69586 26.6395L1.10579 33.9487C-1.53811 39.3315 3.37462 49.311 6.1259 50.371C8.87719 51.431 20.4697 47.8108 23.1136 42.428L26.7037 35.1189C27.3648 33.7729 26.669 32.2076 25.1496 31.6228L19.6471 29.5028L25.4785 17.6302C26.2804 17.6888 27.0965 17.6729 27.9151 17.5427C31.0026 17.0515 33.5937 15.2377 34.8451 12.6901L36.5729 9.17226C37.398 7.49249 36.5267 5.5324 34.6301 4.80167ZM29.3437 10.5705C29.1227 11.0203 28.7796 11.4148 28.3449 11.719C27.9102 12.0231 27.3975 12.2274 26.8522 12.3138C25.5127 12.5257 24.1701 12.0078 23.4309 10.993C22.8213 10.1499 22.724 9.10589 23.1737 8.19325L24.004 6.50271L30.1741 8.87995L29.3437 10.5705Z" fill="#666666"/>
</svg>
