<svg width="22" height="20" viewBox="0 0 22 20" fill="none" xmlns="http://www.w3.org/2000/svg">
<path d="M19.5556 1.19995H2.44444C1.09618 1.19995 0 2.2762 0 3.59995V15.6C0 16.9237 1.09618 18 2.44444 18H19.5556C20.9038 18 22 16.9237 22 15.6V3.59995C22 2.2762 20.9038 1.19995 19.5556 1.19995ZM20.7778 15.6C20.7778 16.26 20.2278 16.8 19.5556 16.8H2.44444C1.77222 16.8 1.22222 16.26 1.22222 15.6V3.59995C1.22222 2.93995 1.77222 2.39995 2.44444 2.39995H19.5556C20.2278 2.39995 20.7778 2.93995 20.7778 3.59995V15.6ZM18.0278 10.8H13.75C13.5819 10.8 13.4444 10.935 13.4444 11.1V11.7C13.4444 11.865 13.5819 12 13.75 12H18.0278C18.1958 12 18.3333 11.865 18.3333 11.7V11.1C18.3333 10.935 18.1958 10.8 18.0278 10.8ZM18.0278 8.39995H13.75C13.5819 8.39995 13.4444 8.53495 13.4444 8.69995V9.29995C13.4444 9.46495 13.5819 9.59995 13.75 9.59995H18.0278C18.1958 9.59995 18.3333 9.46495 18.3333 9.29995V8.69995C18.3333 8.53495 18.1958 8.39995 18.0278 8.39995ZM18.0278 5.99995H13.75C13.5819 5.99995 13.4444 6.13495 13.4444 6.29995V6.89995C13.4444 7.06495 13.5819 7.19995 13.75 7.19995H18.0278C18.1958 7.19995 18.3333 7.06495 18.3333 6.89995V6.29995C18.3333 6.13495 18.1958 5.99995 18.0278 5.99995ZM7.94444 10.8C9.63264 10.8 11 9.45745 11 7.79995C11 6.14245 9.63264 4.79995 7.94444 4.79995C6.25625 4.79995 4.88889 6.14245 4.88889 7.79995C4.88889 9.45745 6.25625 10.8 7.94444 10.8ZM7.94444 5.99995C8.9566 5.99995 9.77778 6.8062 9.77778 7.79995C9.77778 8.7937 8.9566 9.59995 7.94444 9.59995C6.93229 9.59995 6.11111 8.7937 6.11111 7.79995C6.11111 6.8062 6.93229 5.99995 7.94444 5.99995ZM9.73194 11.4C8.98715 11.4 8.8 11.6625 7.94444 11.6625C7.08889 11.6625 6.90174 11.4 6.15694 11.4C5.34722 11.4 4.56042 11.7524 4.10208 12.4275C3.82708 12.8287 3.66667 13.3125 3.66667 13.8337V14.7C3.66667 14.865 3.80417 15 3.97222 15H4.58333C4.75139 15 4.88889 14.865 4.88889 14.7V13.8337C4.88889 13.5712 4.9691 13.3162 5.11806 13.0987C5.33194 12.7874 5.72153 12.6037 6.16076 12.6037C6.63438 12.6037 6.95521 12.8662 7.94826 12.8662C8.9375 12.8662 9.25833 12.6037 9.73576 12.6037C10.175 12.6037 10.5646 12.7912 10.7785 13.0987C10.9274 13.3162 11.0076 13.5712 11.0076 13.8337V14.7C11.0076 14.865 11.1451 15 11.3132 15H11.9243C12.0924 15 12.2299 14.865 12.2299 14.7V13.8337C12.2299 13.3125 12.0694 12.8287 11.7944 12.4275C11.3247 11.7524 10.5378 11.4 9.73194 11.4Z" fill="#F47C3D"/>
</svg>
