<svg width="24" height="23" viewBox="0 0 24 23" fill="none" xmlns="http://www.w3.org/2000/svg">
<g clip-path="url(#clip0_2670_42627)">
<path d="M7.57304 11.8427L8.5618 5.52808C8.15731 5.52808 7.48315 5.52808 7.48315 5.52808C6.98877 5.52808 6.33708 5.25842 6.13483 4.74156C6.06742 4.56179 5.93259 3.95505 6.76405 3.37078C7.05619 3.16853 7.25843 2.94381 7.2809 2.76403C7.32585 2.58426 7.2809 2.42696 7.14607 2.29213C6.98877 2.13482 6.62922 2.02246 6.17978 2.02246C5.41574 2.02246 4.87641 2.4719 4.83147 2.7865C4.78652 3.0337 4.98877 3.21347 5.14607 3.32583C5.61798 3.68538 5.73035 4.20223 5.43821 4.69662C5.1236 5.191 4.47191 5.52808 3.77528 5.52808C3.77528 5.52808 3.07866 5.52808 2.67416 5.52808C2.58427 6.13482 1.10113 15.573 0.98877 16.3146H6.92135C6.94382 16 7.21349 14.2022 7.57304 11.8427Z" fill="#459BBE"/>
<path d="M15.5057 0H9.48318L8.67419 5.10113H9.7079C10.2697 5.10113 10.809 4.85393 11.0337 4.47191C11.1012 4.35955 11.1461 4.24719 11.1461 4.1573C11.1461 3.95506 11.0113 3.77528 10.854 3.68539C10.4495 3.39326 10.3821 3.07865 10.3821 2.85394C10.3821 2.80899 10.3821 2.76405 10.3821 2.74158C10.4719 2.20225 11.191 1.61798 12.1573 1.61798C12.7416 1.61798 13.1686 1.75281 13.4382 2C13.663 2.22472 13.7753 2.53933 13.7079 2.85394C13.618 3.23596 13.236 3.55056 13.0113 3.70786C12.427 4.11236 12.4944 4.47191 12.5394 4.58427C12.6517 4.89887 13.1236 5.10113 13.4832 5.10113H15.0562C17.191 5.1236 18.3371 6.08988 17.9551 8.38202C17.618 10.4944 16 11.4157 14.0675 11.4382L13.2585 16.3146H14.3821C19.1686 16.3146 23.0562 13.236 23.8427 8.40449C24.809 2.40449 20.9888 0 15.5057 0Z" fill="#235971"/>
<path d="M0.651684 18.4944H3.07865C4.11236 18.4944 4.35955 19.0112 4.29214 19.5056C4.22472 19.8876 3.97753 20.1798 3.50562 20.3596C4.08989 20.5843 4.3146 20.9214 4.22472 21.4607C4.11236 22.1348 3.52809 22.6292 2.76404 22.6292H0L0.651684 18.4944ZM2.24719 20.2247C2.7191 20.2247 2.94382 19.9775 2.98876 19.6854C3.0337 19.3708 2.89887 19.1461 2.42696 19.1461H2L1.82023 20.2247H2.24719ZM1.97753 22.0225C2.47191 22.0225 2.74157 21.8202 2.80899 21.4157C2.85393 21.0787 2.67415 20.8539 2.20224 20.8539H1.73034L1.55056 22.0225H1.97753Z" fill="#235971"/>
<path d="M7.59552 22.6742C6.96631 22.7192 6.6517 22.6517 6.51687 22.3821C6.17979 22.5843 5.82025 22.6967 5.41575 22.6967C4.69665 22.6967 4.44946 22.3371 4.51687 21.9102C4.53935 21.7079 4.65171 21.5282 4.85395 21.3708C5.23598 21.0338 6.22474 20.9888 6.60676 20.7192C6.62923 20.427 6.51687 20.3147 6.15732 20.3147C5.73035 20.3147 5.39327 20.4495 4.78653 20.854L4.92137 19.9102C5.43822 19.5282 5.9326 19.3708 6.51687 19.3708C7.25845 19.3708 7.91013 19.663 7.7753 20.472L7.64047 21.3933C7.59552 21.7079 7.59552 21.8203 7.95507 21.8203L7.59552 22.6742ZM6.51687 21.2585C6.17979 21.4607 5.55058 21.4383 5.48316 21.8652C5.46069 22.0675 5.57306 22.2248 5.7753 22.2248C5.97755 22.2248 6.22474 22.1349 6.40451 22.0001C6.38204 21.9326 6.40451 21.8428 6.42699 21.7079L6.51687 21.2585Z" fill="#235971"/>
<path d="M8.78651 19.4383H10.0449L9.97752 19.8652C10.382 19.5281 10.6741 19.3933 11.0786 19.3933C11.7753 19.3933 12.1123 19.8203 12 20.5394L11.6629 22.6517H10.4045L10.6741 20.8989C10.7191 20.5843 10.6292 20.427 10.382 20.427C10.1798 20.427 10 20.5394 9.82022 20.7641L9.52808 22.6293H8.26965L8.78651 19.4383Z" fill="#235971"/>
<path d="M12.9887 18.4944H14.2472L13.9326 20.5393L15.146 19.4382H16.6966L15.146 20.809L16.382 22.6517H14.7865L13.8202 21.1685H13.7977L13.573 22.6517H12.3146L12.9887 18.4944Z" fill="#235971"/>
<path d="M0.651684 18.4944H3.07865C4.11236 18.4944 4.35955 19.0112 4.29214 19.5056C4.22472 19.8876 3.97753 20.1798 3.50562 20.3596C4.08989 20.5843 4.3146 20.9214 4.22472 21.4607C4.11236 22.1348 3.52809 22.6292 2.76404 22.6292H0L0.651684 18.4944ZM2.24719 20.2247C2.7191 20.2247 2.94382 19.9775 2.98876 19.6854C3.0337 19.3708 2.89887 19.1461 2.42696 19.1461H2L1.82023 20.2247H2.24719ZM1.97753 22.0225C2.47191 22.0225 2.74157 21.8202 2.80899 21.4157C2.85393 21.0787 2.67415 20.8539 2.20224 20.8539H1.73034L1.55056 22.0225H1.97753Z" fill="#235971"/>
<path d="M7.59552 22.6742C6.96631 22.7192 6.6517 22.6517 6.51687 22.3821C6.17979 22.5843 5.82025 22.6967 5.41575 22.6967C4.69665 22.6967 4.44946 22.3371 4.51687 21.9102C4.53935 21.7079 4.65171 21.5282 4.85395 21.3708C5.23598 21.0338 6.22474 20.9888 6.60676 20.7192C6.62923 20.427 6.51687 20.3147 6.15732 20.3147C5.73035 20.3147 5.39327 20.4495 4.78653 20.854L4.92137 19.9102C5.43822 19.5282 5.9326 19.3708 6.51687 19.3708C7.25845 19.3708 7.91013 19.663 7.7753 20.472L7.64047 21.3933C7.59552 21.7079 7.59552 21.8203 7.95507 21.8203L7.59552 22.6742ZM6.51687 21.2585C6.17979 21.4607 5.55058 21.4383 5.48316 21.8652C5.46069 22.0675 5.57306 22.2248 5.7753 22.2248C5.97755 22.2248 6.22474 22.1349 6.40451 22.0001C6.38204 21.9326 6.40451 21.8428 6.42699 21.7079L6.51687 21.2585Z" fill="#235971"/>
<path d="M8.78651 19.4383H10.0449L9.97752 19.8652C10.382 19.5281 10.6741 19.3933 11.0786 19.3933C11.7753 19.3933 12.1123 19.8203 12 20.5394L11.6629 22.6517H10.4045L10.6741 20.8989C10.7191 20.5843 10.6292 20.427 10.382 20.427C10.1798 20.427 10 20.5394 9.82022 20.7641L9.52808 22.6293H8.26965L8.78651 19.4383Z" fill="#235971"/>
<path d="M12.9887 18.4944H14.2472L13.9326 20.5393L15.146 19.4382H16.6966L15.146 20.809L16.382 22.6517H14.7865L13.8202 21.1685H13.7977L13.573 22.6517H12.3146L12.9887 18.4944Z" fill="#235971"/>
<path d="M17.4382 18.4944H18.8989L18.2472 22.6292H16.7865L17.4382 18.4944Z" fill="#459BBE"/>
<path d="M19.5955 18.4944H21.6629C23.2584 18.4944 23.7304 19.6629 23.573 20.6292C23.4382 21.573 22.6742 22.6517 21.2809 22.6517H18.9663L19.5955 18.4944ZM20.9438 21.6629C21.6405 21.6629 22.045 21.3258 22.1573 20.5843C22.2472 20.045 22.0674 19.5056 21.3034 19.5056H20.8989L20.5618 21.6854L20.9438 21.6629Z" fill="#459BBE"/>
</g>
<defs>
<clipPath id="clip0_2670_42627">
<rect width="24" height="22.6517" fill="white"/>
</clipPath>
</defs>
</svg>
